<?xml version="1.0" encoding="UTF-8" standalone="no"?>
<svg
   xmlns:dc="http://purl.org/dc/elements/1.1/"
   xmlns:cc="http://creativecommons.org/ns#"
   xmlns:rdf="http://www.w3.org/1999/02/22-rdf-syntax-ns#"
   xmlns:svg="http://www.w3.org/2000/svg"
   xmlns="http://www.w3.org/2000/svg"
   xmlns:sodipodi="http://sodipodi.sourceforge.net/DTD/sodipodi-0.dtd"
   xmlns:inkscape="http://www.inkscape.org/namespaces/inkscape"
   inkscape:version="1.0 (4035a4fb49, 2020-05-01)"
   sodipodi:docname="buddler_logo.svg"
   id="svg18"
   version="1.1"
   fill="none"
   viewBox="0 0 142 28"
   height="28"
   width="142">
  <metadata
     id="metadata24">
    <rdf:RDF>
      <cc:Work
         rdf:about="">
        <dc:format>image/svg+xml</dc:format>
        <dc:type
           rdf:resource="http://purl.org/dc/dcmitype/StillImage" />
        <dc:title></dc:title>
      </cc:Work>
    </rdf:RDF>
  </metadata>
  <defs
     id="defs22" />
  <sodipodi:namedview
     inkscape:current-layer="svg18"
     inkscape:window-maximized="1"
     inkscape:window-y="-9"
     inkscape:window-x="-9"
     inkscape:cy="99.576442"
     inkscape:cx="185.55898"
     inkscape:zoom="1.5181818"
     showgrid="false"
     id="namedview20"
     inkscape:window-height="1001"
     inkscape:window-width="1920"
     inkscape:pageshadow="2"
     inkscape:pageopacity="0"
     guidetolerance="10"
     gridtolerance="10"
     objecttolerance="10"
     borderopacity="1"
     bordercolor="#666666"
     pagecolor="#ffffff" />
  <g
     transform="matrix(0.25818182,0,0,0.25818182,-5.0000001e-7,-0.25512192)"
     id="g867">
    <path
       d="m 120.37,31.5559 c 0,2.0645 1.674,3.7381 3.738,3.7381 h 14.313 c 2.064,0 3.738,-1.6736 3.738,-3.7381 V 5.40975 c 0,-2.06454 -1.674,-3.73817 -3.738,-3.73817 h -14.313 c -2.064,0 -3.738,1.67363 -3.738,3.73817 z"
       fill="#5cc971"
       id="path2" />
    <path
       d="m 47.4717,108.951 c 6.533,0 12.2093,-1.534 17.0287,-4.601 4.873,-3.12 8.6483,-7.6157 11.3258,-13.486 2.6774,-5.9232 4.0162,-13.0891 4.0162,-21.4979 v -7.2982 c 0,-8.6203 -1.3655,-15.8391 -4.0966,-21.6565 C 73.0684,34.5411 69.2931,30.0987 64.4201,27.0843 59.6007,24.0698 53.978,22.5626 47.552,22.5626 c -2.8381,0 -5.5424,0.3437 -8.1128,1.0312 -2.5703,0.6347 -4.9265,1.5337 -7.0685,2.6972 -2.0884,1.1635 -3.9359,2.5914 -5.5424,4.2837 -1.4652,1.5468 -2.6682,3.2348 -3.609,5.0641 -0.1035,0.2013 -0.3096,0.3302 -0.5359,0.3302 -0.3282,0 -0.5942,-0.266 -0.5942,-0.5942 V 4.73818 C 22.0892,2.67364 20.4156,1 18.351,1 H 3.73818 C 1.67364,1 0,2.67364 0,4.73818 V 104.181 c 0,2.065 1.67364,3.739 3.73818,3.739 H 18.0297 c 2.0646,0 3.7382,-1.674 3.7382,-3.739 v -8.7593 c 0,-0.3265 0.2648,-0.5913 0.5913,-0.5913 0.2277,0 0.4347,0.131 0.5358,0.335 1.3723,2.767 3.1654,5.1676 5.3792,7.2016 2.3026,2.115 5.0604,3.754 8.2734,4.918 3.2665,1.11 6.9079,1.666 10.9241,1.666 z M 40.1622,91.7366 c -3.6949,0 -6.9079,-0.8726 -9.639,-2.6178 -2.731,-1.7981 -4.8462,-4.4159 -6.3456,-7.8535 -1.4458,-3.4375 -2.1687,-7.6684 -2.1687,-12.6925 v -5.6323 c 0,-5.1298 0.7497,-9.3871 2.249,-12.7718 1.4994,-3.4375 3.6146,-6.0025 6.3457,-7.6948 2.731,-1.7452 5.9172,-2.6178 9.5586,-2.6178 3.3736,0 6.3188,0.8726 8.8356,2.6178 2.5704,1.7452 4.5785,4.3366 6.0244,7.7742 1.4458,3.3846 2.1687,7.6154 2.1687,12.6924 v 5.7117 c 0,5.0241 -0.7229,9.2549 -2.1687,12.6924 -1.4459,3.3847 -3.454,5.9761 -6.0244,7.7742 -2.5168,1.7452 -5.462,2.6178 -8.8356,2.6178 z"
       fill="#306ffb"
       id="path4" />
    <path
       d="m 131.896,91.4676 c -4.927,0 -8.916,-1.3485 -11.969,-4.0457 -3.052,-2.6971 -4.578,-6.7958 -4.578,-12.2958 V 39.7072 c 0,-2.0646 -1.674,-3.7382 -3.738,-3.7382 H 96.6767 c -2.0646,0 -3.7382,1.6737 -3.7382,3.7382 v 37.7987 c 0,6.3991 1.5797,11.9785 4.7391,16.7382 3.2134,4.7068 7.7384,8.3819 13.5744,11.0269 5.837,2.644 12.718,3.966 20.644,3.966 7.925,0 14.779,-1.296 20.563,-3.887 5.837,-2.644 10.335,-6.3198 13.494,-11.0266 3.213,-4.7596 4.82,-10.339 4.82,-16.7382 v -37.878 c 0,-2.0645 -1.674,-3.7382 -3.738,-3.7382 H 152.1 c -2.064,0 -3.738,1.6737 -3.738,3.7382 v 35.4189 c 0,5.3943 -1.526,9.4664 -4.578,12.2165 -3.053,2.75 -7.015,4.125 -11.888,4.125 z"
       fill="#306ffb"
       id="path6" />
    <path
       d="m 216.32,22.5626 c -6.694,0 -12.477,1.6394 -17.35,4.9183 -4.82,3.226 -8.541,7.8006 -11.165,13.7238 -2.624,5.8702 -3.936,12.8775 -3.936,21.0219 v 6.9808 c 0,8.1973 1.258,15.2575 3.775,21.1806 2.57,5.9232 6.265,10.498 11.085,13.724 4.873,3.226 10.737,4.839 17.591,4.839 2.945,0 5.676,-0.344 8.193,-1.031 2.57,-0.635 4.9,-1.561 6.988,-2.777 2.089,-1.216 3.936,-2.697 5.543,-4.442 1.527,-1.6601 2.765,-3.5112 3.711,-5.5537 0.089,-0.192 0.28,-0.3169 0.492,-0.3169 0.296,0 0.536,0.2398 0.536,0.5356 v 8.815 c 0,2.065 1.673,3.739 3.738,3.739 h 14.291 c 2.065,0 3.739,-1.674 3.739,-3.739 V 4.73818 C 263.551,2.67364 261.877,1 259.812,1 H 245.2 c -2.065,0 -3.739,1.67364 -3.739,3.73818 V 35.5087 c 0,0.298 -0.241,0.5396 -0.539,0.5396 -0.21,0 -0.4,-0.1219 -0.492,-0.3105 -1.226,-2.5163 -2.97,-4.7397 -5.234,-6.6703 -2.303,-2.0626 -5.06,-3.6491 -8.273,-4.7597 -3.16,-1.1635 -6.694,-1.7452 -10.603,-1.7452 z m 7.39,17.2935 c 3.641,0 6.8,0.9255 9.478,2.7765 2.677,1.7981 4.739,4.4159 6.185,7.8534 1.499,3.4376 2.249,7.5891 2.249,12.4545 v 5.791 c 0,4.9712 -0.75,9.1756 -2.249,12.6131 -1.446,3.3847 -3.508,5.9496 -6.185,7.6948 -2.624,1.7453 -5.757,2.6179 -9.398,2.6179 -3.32,0 -6.292,-0.8462 -8.916,-2.5385 -2.57,-1.6923 -4.605,-4.2309 -6.105,-7.6155 -1.499,-3.4376 -2.249,-7.7213 -2.249,-12.8511 v -5.7117 c 0,-5.1827 0.723,-9.4664 2.169,-12.8511 1.499,-3.4376 3.561,-6.0025 6.185,-7.6948 2.624,-1.6923 5.569,-2.5385 8.836,-2.5385 z"
       fill="#306ffb"
       id="path8" />
    <path
       d="m 309.901,22.5626 c -6.694,0 -12.477,1.6394 -17.35,4.9183 -4.82,3.226 -8.541,7.8006 -11.165,13.7238 -2.624,5.8702 -3.936,12.8775 -3.936,21.0219 v 6.9808 c 0,8.1973 1.258,15.2575 3.775,21.1806 2.571,5.9232 6.265,10.498 11.085,13.724 4.873,3.226 10.737,4.839 17.591,4.839 2.945,0 5.676,-0.344 8.193,-1.031 2.57,-0.635 4.9,-1.561 6.988,-2.777 2.089,-1.216 3.936,-2.697 5.543,-4.442 1.527,-1.6601 2.765,-3.5112 3.711,-5.5537 0.089,-0.192 0.281,-0.3169 0.492,-0.3169 0.296,0 0.536,0.2398 0.536,0.5356 v 8.815 c 0,2.065 1.673,3.739 3.738,3.739 h 14.291 c 2.065,0 3.739,-1.674 3.739,-3.739 V 4.73818 C 357.132,2.67364 355.458,1 353.393,1 h -14.612 c -2.065,0 -3.739,1.67364 -3.739,3.73818 V 35.5087 c 0,0.298 -0.241,0.5396 -0.539,0.5396 -0.21,0 -0.4,-0.1219 -0.492,-0.3105 -1.226,-2.5163 -2.97,-4.7397 -5.234,-6.6703 -2.302,-2.0626 -5.06,-3.6491 -8.273,-4.7597 -3.16,-1.1635 -6.694,-1.7452 -10.603,-1.7452 z m 7.39,17.2935 c 3.641,0 6.801,0.9255 9.478,2.7765 2.678,1.7981 4.739,4.4159 6.185,7.8534 1.499,3.4376 2.249,7.5891 2.249,12.4545 v 5.791 c 0,4.9712 -0.75,9.1756 -2.249,12.6131 -1.446,3.3847 -3.507,5.9496 -6.185,7.6948 -2.624,1.7453 -5.757,2.6179 -9.398,2.6179 -3.32,0 -6.292,-0.8462 -8.916,-2.5385 -2.57,-1.6923 -4.605,-4.2309 -6.105,-7.6155 -1.499,-3.4376 -2.249,-7.7213 -2.249,-12.8511 v -5.7117 c 0,-5.1827 0.723,-9.4664 2.169,-12.8511 1.499,-3.4376 3.561,-6.0025 6.185,-7.6948 2.624,-1.6923 5.569,-2.5385 8.836,-2.5385 z"
       fill="#306ffb"
       id="path10" />
    <path
       d="m 374.967,104.181 c 0,2.065 1.673,3.739 3.738,3.739 h 14.533 c 2.064,0 3.738,-1.674 3.738,-3.739 V 4.73818 C 396.976,2.67364 395.302,1 393.238,1 h -14.533 c -2.065,0 -3.738,1.67364 -3.738,3.73818 z"
       fill="#306ffb"
       id="path12" />
    <path
       d="m 450.073,109.427 c 5.837,0 10.924,-0.767 15.262,-2.301 4.337,-1.586 7.979,-3.675 10.924,-6.267 2.945,-2.6439 5.248,-5.5791 6.908,-8.8051 0.956,-1.8573 1.716,-3.7322 2.281,-5.6246 0.652,-2.1822 -1.108,-4.2121 -3.386,-4.2121 h -13.07 c -1.759,0 -3.223,1.2596 -3.972,2.8513 -0.501,1.0663 -1.146,2.0462 -1.934,2.9397 -1.446,1.5865 -3.267,2.8294 -5.462,3.7284 -2.196,0.8462 -4.659,1.2692 -7.39,1.2692 -5.194,0 -9.425,-1.8245 -12.691,-5.4736 -3.267,-3.6491 -4.9,-8.541 -4.9,-14.6757 v -2.4591 h 54.54 v -8.3295 c 0,-8.1443 -1.553,-15.2045 -4.659,-21.1806 -3.106,-5.976 -7.497,-10.6035 -13.173,-13.8824 -5.623,-3.2788 -12.343,-4.9183 -20.161,-4.9183 -7.497,0 -14.111,1.5601 -19.84,4.6804 -5.73,3.1202 -10.228,7.6155 -13.495,13.4857 -3.213,5.8703 -4.819,12.9569 -4.819,21.2599 v 7.5362 c 0,8.6732 1.606,16.0243 4.819,22.0532 3.267,5.976 7.818,10.524 13.655,13.644 5.891,3.121 12.745,4.681 20.563,4.681 z m -17.43,-52.5947 c 0,-0.0529 0,-0.0793 0,-0.0793 0,-3.5434 0.696,-6.7165 2.088,-9.5194 1.393,-2.8029 3.32,-5.0241 5.784,-6.6636 2.517,-1.6394 5.462,-2.4591 8.835,-2.4591 3.32,0 6.212,0.8197 8.675,2.4591 2.517,1.6395 4.445,3.8607 5.784,6.6636 1.339,2.8029 2.008,5.976 2.008,9.5194 0,0 0,0.0264 0,0.0793 z"
       fill="#306ffb"
       id="path14" />
    <path
       d="m 500.279,104.181 c 0,2.065 1.674,3.739 3.738,3.739 h 15.095 c 2.065,0 3.738,-1.674 3.738,-3.739 V 60.402 c 0,-3.8077 0.589,-7.1659 1.767,-10.0746 1.232,-2.9616 3.187,-5.2621 5.864,-6.9016 2.731,-1.6394 6.399,-2.4591 11.005,-2.4591 1.66,0 3.266,0.0793 4.819,0.238 1.607,0.1057 2.838,0.2908 3.695,0.5553 V 23.0385 c -0.857,-0.2115 -1.848,-0.3702 -2.972,-0.4759 -1.125,-0.1058 -2.437,-0.1587 -3.936,-0.1587 -3.855,0 -7.149,0.714 -9.88,2.1419 -2.731,1.375 -4.926,3.0673 -6.586,5.077 -1.505,1.8826 -2.587,3.6724 -3.246,5.3694 -0.08,0.2042 -0.274,0.3422 -0.493,0.3422 -0.287,0 -0.519,-0.2321 -0.519,-0.5184 v -7.484 c 0,-2.0645 -1.673,-3.7382 -3.738,-3.7382 h -14.613 c -2.064,0 -3.738,1.6737 -3.738,3.7382 z"
       fill="#306ffb"
       id="path16" />
  </g>
</svg>
